# xmcd
# 
# Track frame offsets:
#     150
#     17751
#     36569
#     54107
#     68279
#     91155
#     110792
#     141709
#     162981
#     185169
#     207777
#     225759
# 
# Disc length: 3300
# 
# Revision: 0
# Processed by: cddbd v1.5.2PL0 Copyright (c) Steve Scherf et al.
# Submitted via: fre:ac v1.0.17
# 
DISCID=9f0ce20c
DTITLE=B.B. King and Friends - 80
DYEAR=2005
DGENRE=Blues
TTITLE0=Early in the Morning
TTITLE1=Tired of Your Jive
TTITLE2=The Thrill Is Gone
TTITLE3=Need Your Love So Bad
TTITLE4=Ain't Nobody Home
TTITLE5=Hummingbird
TTITLE6=All Over Again
TTITLE7=Drivin' Wheel
TTITLE8=There Must Be a Better World Somewhere
TTITLE9=Never Make Your  Move Too Soon
TTITLE10=Funny How Time Slips Away
TTITLE11=Rock This House
EXTD=
EXTT0=
EXTT1=
EXTT2=
EXTT3=
EXTT4=
EXTT5=
EXTT6=
EXTT7=
EXTT8=
EXTT9=
EXTT10=
EXTT11=
PLAYORDER=
